<svg xmlns="http://www.w3.org/2000/svg" viewBox="0 0 72 72">
  <path fill="#F4AA41" d="M59.5 27c0-6.904-5.596-12.5-12.5-12.5S34.5 20.096 34.5 27c0 .338.013.672.04 1H25c-7.18 0-13 5.82-13 13v8c0 7.18 5.82 13 13 13h22c7.18 0 13-5.82 13-13v-8c0-1.126-.143-2.219-.41-3.262.593-1.768.91-3.659.91-5.738z"/>
  <path fill="#EA5A47" d="M38 32c0 1.657-1.343 3-3 3s-3-1.343-3-3 1.343-3 3-3 3 1.343 3 3m14 0c0 1.657-1.343 3-3 3s-3-1.343-3-3 1.343-3 3-3 3 1.343 3 3"/>
  <path fill="#D0CFCE" d="M47 14.5c-6.904 0-12.5 5.596-12.5 12.5 0 .338.013.672.04 1H25c-7.18 0-13 5.82-13 13v8c0 7.18 5.82 13 13 13h22c7.18 0 13-5.82 13-13v-8c0-1.126-.143-2.219-.41-3.262.593-1.768.91-3.659.91-5.738 0-6.904-5.596-12.5-12.5-12.5z"/>
</svg>